<svg xmlns="http://www.w3.org/2000/svg" width="512" height="591" fill="none" viewBox="0 0 512 591">
  <mask id="a" fill="#fff">
    <path fill-rule="evenodd" d="M175.618 82.197c0 4.6-.37 9.113-1.082 13.508 26.232-5.857 54.272-8.556 83.28-8.556 26.64 0 52.334 2.312 76.479 7.272a84.619 84.619 0 0 1-.884-12.224C333.411 36.801 369.473 0 413.957 0c44.485 0 80.547 36.801 80.547 82.197 0 31.354-17.202 58.607-42.5 72.468C489.422 192.995 512 249.381 512 328.129c0 151.85-113.985 262.767-254.184 262.767C117.616 590.896 0 473.251 0 328.129c0-77.943 22.57-133.842 59.721-172.053-26.764-13.362-45.196-41.424-45.196-73.879C14.525 36.801 50.587 0 95.072 0c44.484 0 80.546 36.801 80.546 82.197Z" clip-rule="evenodd"/>
  </mask>
  <path fill="#fff" fill-rule="evenodd" d="M175.618 82.197c0 4.6-.37 9.113-1.082 13.508 26.232-5.857 54.272-8.556 83.28-8.556 26.64 0 52.334 2.312 76.479 7.272a84.619 84.619 0 0 1-.884-12.224C333.411 36.801 369.473 0 413.957 0c44.485 0 80.547 36.801 80.547 82.197 0 31.354-17.202 58.607-42.5 72.468C489.422 192.995 512 249.381 512 328.129c0 151.85-113.985 262.767-254.184 262.767C117.616 590.896 0 473.251 0 328.129c0-77.943 22.57-133.842 59.721-172.053-26.764-13.362-45.196-41.424-45.196-73.879C14.525 36.801 50.587 0 95.072 0c44.484 0 80.546 36.801 80.546 82.197Z" clip-rule="evenodd"/>
  <path fill="#000" d="m174.536 95.705-14.807-2.399-3.542 21.865 21.618-4.826-3.269-14.64Zm159.759-1.284-3.018 14.693 20.953 4.304-3.092-21.165-14.843 2.168Zm117.709 60.244-7.207-13.155-17.329 9.494 13.803 14.139 10.733-10.478Zm-392.283 1.411 10.755 10.456 14.304-14.711-18.359-9.166-6.7 13.421Zm129.622-57.972a99.429 99.429 0 0 0 1.275-15.907h-30a69.43 69.43 0 0 1-.889 11.11l29.614 4.797Zm68.473-25.955c-29.917 0-59.073 2.782-86.549 8.916l6.538 29.28c24.988-5.58 51.913-8.196 80.011-8.196v-30Zm79.498 7.579c-25.286-5.194-52.006-7.58-79.498-7.58v30.001c25.788 0 50.456 2.24 73.461 6.965l6.037-29.386Zm11.824 12.525a69.534 69.534 0 0 1-.727-10.056h-30c0 4.882.355 9.688 1.042 14.393l29.685-4.337Zm-.727-10.056c0-37.4 29.631-67.197 65.546-67.197v-30c-53.054 0-95.546 43.805-95.546 97.197h30ZM413.957 15c35.916 0 65.547 29.797 65.547 67.197h30c0-53.392-42.492-97.197-95.547-97.197v30Zm65.547 67.197c0 25.766-14.119 48.032-34.707 59.313l14.415 26.31c30.007-16.441 50.292-48.682 50.292-85.623h-30ZM527 328.13c0-81.715-23.511-142.198-64.262-183.942l-21.467 20.956C475.356 200.059 497 252.348 497 328.129h30ZM257.816 605.896C406.509 605.896 527 488.053 527 328.129h-30c0 143.777-107.478 247.767-239.184 247.767v30ZM-15 328.129c0 153.22 124.146 277.767 272.816 277.767v-30C126.086 575.896 15 465.154 15 328.129h-30ZM48.967 145.62C8.53 187.208-15 247.168-15 328.129h30c0-74.926 21.608-126.763 55.476-161.597l-21.51-20.912ZM-.475 82.197c0 38.237 21.733 71.442 53.496 87.299l13.4-26.841c-21.765-10.866-36.896-33.784-36.896-60.458h-30ZM95.072-15C42.017-15-.475 28.805-.475 82.197h30C29.525 44.797 59.157 15 95.072 15v-30Zm95.546 97.197C190.618 28.805 148.126-15 95.072-15v30c35.915 0 65.546 29.797 65.546 67.197h30Z" mask="url(#a)"/>
  <path fill="#fff" stroke="#000" stroke-width="15" d="M461.916 364.441c0 72.019-23.462 119.674-60.355 149.528-37.174 30.082-89.121 43.018-147.707 43.018-58.235 0-110.244-15.988-147.566-47.729-37.148-31.594-60.495-79.419-60.495-144.817 0-62.826 9.754-92.657 37.548-108.668 14.495-8.35 34.646-13.424 62.812-16.312 28.092-2.881 63.373-3.525 107.701-3.525 41.779 0 75.767.005 103.443 2.103 27.744 2.104 48.259 6.268 63.422 14.067 14.774 7.599 24.868 18.858 31.437 36.345 6.708 17.853 9.76 42.276 9.76 75.99Z"/>
  <path fill="#fff" stroke="#000" stroke-linecap="round" stroke-miterlimit="16" stroke-width="15" d="m102.004 323.177-31.03-53.808c4.49-11.619 28.72-18.706 40.273-20.796l-9.243 74.604Zm299.409-3.631 31.031-53.808c-4.49-11.62-28.72-18.706-40.274-20.797l9.243 74.605Zm-216.882-33.642-16.175-47.206h30.04l-13.865 47.206Zm156.802 1.641 16.176-47.206h-30.04l13.864 47.206ZM165.055 491.844l-24.428 38.293 24.428 10.563v-48.856Zm180.24 1 24.428 38.293-24.428 10.563v-48.856Z"/>
  <path stroke="#000" stroke-linecap="round" stroke-miterlimit="16" stroke-width="15" d="m186.5 543 6-30.5 19.76 36.405m115.209-5.583-7.923-29.05-14.525 34.331"/>
  <ellipse cx="254.845" cy="203.348" fill="#fff" rx="19.807" ry="11.224"/>
  <ellipse cx="262.437" cy="200.376" fill="#fff" rx="5.612" ry="2.971" transform="rotate(20 262.437 200.376)"/>
  <path fill="#fff" d="M350.246 192.124c21.656-12.676 19.807-38.159 16.176-49.316-17.813 3.817-45.09 13.265-75.763 33.14 6.435 7.593 32.518 32.021 59.587 16.176Z"/>
  <path stroke="#000" stroke-linecap="round" stroke-miterlimit="16" stroke-width="15" d="M382.597 140.627c-3.708.059-9.22.69-16.175 2.181m-94.412 25.548 12.215 11.884a292.338 292.338 0 0 1 6.434-4.292m75.763-33.14c3.631 11.157 5.48 36.64-16.176 49.316-27.069 15.845-53.152-8.583-59.587-16.176m75.763-33.14c-17.813 3.817-45.09 13.265-75.763 33.14"/>
  <ellipse cx="12.874" cy="12.544" fill="#000" rx="12.874" ry="12.544" transform="matrix(-1 0 0 1 335.721 162.744)"/>
  <circle cx="3.301" cy="3.301" r="3.301" fill="#fff" transform="matrix(-1 0 0 1 319.876 171.987)"/>
  <path fill="#fff" d="M157.792 191.133c-21.655-12.676-19.806-38.159-16.175-49.316 17.813 3.817 45.09 13.266 75.763 33.141-6.435 7.593-32.519 32.021-59.588 16.175Z"/>
  <path stroke="#000" stroke-linecap="round" stroke-miterlimit="16" stroke-width="15" d="M125.442 139.636c3.708.059 9.22.691 16.175 2.181m94.411 25.549-12.214 11.884a294.735 294.735 0 0 0-6.434-4.292m-75.763-33.141c-3.631 11.157-5.48 36.64 16.175 49.316 27.069 15.846 53.153-8.582 59.588-16.175m-75.763-33.141c17.813 3.817 45.09 13.266 75.763 33.141"/>
  <ellipse cx="185.191" cy="174.298" fill="#000" rx="12.874" ry="12.544"/>
  <circle cx="191.464" cy="174.298" r="3.301" fill="#fff"/>
</svg>
