<svg xmlns="http://www.w3.org/2000/svg" width="908" height="779" fill="none" viewBox="0 0 908 779">
  <path stroke="#000" stroke-linecap="round" stroke-width="15" d="M269.804 695.355c-5.061-26.747 24.577-59.638 31.083-64.336m23.129.722c-6.867 6.145-31.512-3.975-31.075-22.356.723-30.361 37.946-50.293 42.283-51.377 4.337-1.085 31.451 10.534 33.62 17.04m-44.828 56.693c14.816-16.144 46.845-53.801 44.828-56.693m-44.828 56.693c-2.653-6.523-5.783-17.71 6.868-34.336 9.471-12.449 30.017-26.641 37.96-22.357"/>
  <path stroke="#000" stroke-linecap="round" stroke-width="15" d="M352.935 563.791c25.903-23.855 83.854-73.156 96.865-72.288"/>
  <path fill="#000" d="M462.451 492.226c-2.357 10.843-8.356 13.012-15.542 13.012s-13.012-5.826-13.012-13.012c0-9.036 9.44-13.735 16.626-13.735 4.699 0 14.001 4.199 11.928 13.735Z"/>
  <path stroke="#000" stroke-linecap="round" stroke-width="15" d="M204.383 599.935c-9.638 11.445-24.144 44.601 5.06 65.42 36.505 26.024 127.865 67.379 147.829 71.565 22.409 4.699 62.168.914 91.444-12.289 26.014-11.73 61.299-25.672 93.974-40.842 47.532-22.067 76.626-36.144 93.613-48.072 14.016-9.841 57.469-44.818 59.638-77.348"/>
  <path stroke="#000" stroke-linecap="round" stroke-width="15" d="M266.551 520.779c30.916-31.806 76.504-66.504 112.046-86.745 28.554-19.277 82.408-44.819 110.239-47.349 42.913-3.901 82.77 11.928 101.203 23.855 45.804 29.638 74.457 58.257 81.324 68.312 10.12 14.819 25.301 38.168 25.301 78.071 2.53 13.374-9.398 70.843-29.638 86.746-16.28 12.791-47.71 36.867-76.264 48.794-10.864 4.538-61.806 28.915-111.323 50.24-46.534 17.507-71.844 32.198-105.902 27.831-14.096-1.807-69.758-23.614-99.035-37.228l-32.168-15.542c-23.132-13.012-48.794-27.469-54.939-48.071-13.012-34.699 28.915-97.228 79.156-148.914Z"/>
  <path stroke="#D94444" stroke-linecap="round" stroke-width="15" d="M675 444.082c-8.5-19.5-28.903-65.316 37.141-90.52m43.621-5.218c-20.58 1.681-31.536.913-43.621 5.218m0 0c5.029-24.975 5.927-67.741 38.402-88.992m0 0 36.615-22.763c.681-.424 1.562.088 1.549.89-.686 41.366 29.881 82.064 61.669 119.947C882.647 401.103 897 484.082 777.5 538.582M750.543 264.57c5.025-40.215-7.026-121.287-39.737-171.114-42.435-64.638-91.291-76.26-111.709-85.332-.92-.409-1.883.649-1.374 1.518 22.52 38.505 46.654 91.717 31.329 151.011-2.198 8.504-25.803 54.542-34.889 55.267-.632.05-.823-.678-.446-1.188 24.46-33.064 10.105-98.686-2.664-103.924-.644-.264-1.186.335-1.028 1.013 7.569 32.525-42.612 144.496-83.4 176.614"/>
  <path stroke="#EB9B3C" stroke-linecap="round" stroke-width="15" d="M152.06 539.092c-44.073-4.193-117.148-60.661-67.51-150.163 39.067-70.439 54.121-79.599 37.35-153.822-.198-.877.746-1.607 1.498-1.113 51.482 33.833 112.025 89.451 91.081 119.808m0 0c-20.936 8.596-61.211 36.71-54.821 80.392m54.821-80.392c32.466-9.035 98.232-12.827 107.412 42.938m-107.412-42.938c1.011-8.957 17.987-22.113-30.044-71.063-14.815-52.415-14.047-118.41 37.756-170.315.578-.579 1.581-.234 1.711.573 7.477 46.442 35.039 55.657 87.598 79.454 67.6 30.608 43.847 68.684 34.856 108.424-.186.823.659 1.486 1.41 1.102 28.527-14.607 80.187-37.976 123.234 31.974"/>
</svg>
